<?xml version="1.0" encoding="UTF-8" standalone="no"?>
<!-- Created with Inkscape (http://www.inkscape.org/) -->

<svg
   width="63.831451mm"
   height="66.145844mm"
   viewBox="0 0 63.831451 66.145844"
   version="1.1"
   id="svg5"
   xml:space="preserve"
   inkscape:version="1.2.2 (732a01da63, 2022-12-09)"
   sodipodi:docname="touchlix_work.svg"
   xmlns:inkscape="http://www.inkscape.org/namespaces/inkscape"
   xmlns:sodipodi="http://sodipodi.sourceforge.net/DTD/sodipodi-0.dtd"
   xmlns:xlink="http://www.w3.org/1999/xlink"
   xmlns="http://www.w3.org/2000/svg"
   xmlns:svg="http://www.w3.org/2000/svg"><sodipodi:namedview
     id="namedview7"
     pagecolor="#ffffff"
     bordercolor="#000000"
     borderopacity="0.25"
     inkscape:showpageshadow="2"
     inkscape:pageopacity="0.0"
     inkscape:pagecheckerboard="0"
     inkscape:deskcolor="#d1d1d1"
     inkscape:document-units="mm"
     showgrid="false"
     inkscape:zoom="0.36327131"
     inkscape:cx="-1169.9245"
     inkscape:cy="-360.61202"
     inkscape:window-width="1920"
     inkscape:window-height="986"
     inkscape:window-x="-11"
     inkscape:window-y="-11"
     inkscape:window-maximized="1"
     inkscape:current-layer="g1572" /><defs
     id="defs2"><linearGradient
       inkscape:collect="always"
       id="linearGradient1563"><stop
         style="stop-color:#b3b3b3;stop-opacity:0.55813956;"
         offset="0"
         id="stop1559" /><stop
         style="stop-color:#b3b3b3;stop-opacity:0.08033827;"
         offset="0.39336491"
         id="stop1567" /><stop
         style="stop-color:#b3b3b3;stop-opacity:0;"
         offset="1"
         id="stop1561" /></linearGradient><linearGradient
       inkscape:collect="always"
       id="linearGradient800"><stop
         style="stop-color:#b3b3b3;stop-opacity:0.35095137;"
         offset="0"
         id="stop796" /><stop
         style="stop-color:#b3b3b3;stop-opacity:0.28752643;"
         offset="0.17800103"
         id="stop1447" /><stop
         style="stop-color:#b3b3b3;stop-opacity:0.12896407;"
         offset="0.49447078"
         id="stop1445" /><stop
         style="stop-color:#b3b3b3;stop-opacity:0.34249473;"
         offset="0.85624015"
         id="stop1449" /><stop
         style="stop-color:#b3b3b3;stop-opacity:0.32135308;"
         offset="1"
         id="stop798" /></linearGradient><linearGradient
       inkscape:collect="always"
       xlink:href="#linearGradient800"
       id="linearGradient802"
       x1="-276.09473"
       y1="59.672741"
       x2="-276.91068"
       y2="40.574905"
       gradientUnits="userSpaceOnUse" /><linearGradient
       inkscape:collect="always"
       xlink:href="#linearGradient1563"
       id="linearGradient1565"
       x1="-292.08591"
       y1="78.886856"
       x2="-291.63623"
       y2="94.322052"
       gradientUnits="userSpaceOnUse" /></defs><g
     inkscape:label="Layer 1"
     inkscape:groupmode="layer"
     id="layer1"
     transform="translate(310.24094,52.841677)"><g
       id="g1572"
       transform="translate(-8.0268629,-81.051737)"><path
         id="path298"
         style="fill:#fdfdfd;stroke-width:0.264583"
         d="m -282.57441,28.210063 c -1.02037,0.874056 -3.1592,4.288891 -4.11225,6.085417 -1.26795,2.40109 -3.30051,6.166303 -4.51704,8.366931 -0.43198,0.781419 -0.83612,1.52181 -1.17772,2.155871 -0.59247,1.099708 -0.49609,2.871639 0.16813,3.932902 l 6.83559,10.921558 c -0.48496,0.04912 -1.17304,0.07493 -1.9451,0.05788 -3.12874,-0.06905 -4.10247,0.130384 -4.93148,1.008724 -0.72023,0.763073 -7.81078,13.075738 -9.59631,16.552908 -0.25016,0.487167 -0.3842,1.352074 -0.3609,1.902367 l 0.63892,15.093581 19.87269,0.0677 -0.26045,-15.776815 c 0.0916,-0.09159 3.67464,-0.180937 7.9623,-0.198437 8.79854,-0.03603 8.49775,0.03055 10.02575,-2.225704 0.61643,-0.910239 5.63713,-10.939846 7.17074,-14.026616 1.53361,-3.08677 -0.19861,-5.213878 -0.45643,-5.589809 -0.25781,-0.375932 -6.63525,-9.67481 -6.63525,-9.67481 l -0.42065,-5.17e-4 c 1.97938,-0.01591 3.42767,-0.02417 5.64721,-0.04341 l 20.28403,-0.1757 v -8.798429 c 0,-4.839102 -0.0719,-8.986826 -0.1602,-9.217009 -0.14465,-0.376965 -2.33387,-0.418575 -22.04878,-0.418579 z"
         sodipodi:nodetypes="ccsccsscccccscczzcssscssc"
         inkscape:export-filename="touchfflix.svg"
         inkscape:export-xdpi="96"
         inkscape:export-ydpi="96" /><path
         style="fill:url(#linearGradient802);fill-opacity:1;stroke-width:0.269999;stroke-linecap:round;stroke-linejoin:round;paint-order:stroke markers fill"
         d="m -285.3777,59.67274 h 29.11756 c 0,0 0.56866,-0.643086 -0.99783,-3.134219 -1.56649,-2.491133 -6.63525,-9.67481 -6.63525,-9.67481 l -28.87199,-5.18e-4 c 1.38825,5.882522 4.92501,8.539698 7.38751,12.809547 z"
         id="path680"
         sodipodi:nodetypes="cczccc" /><path
         style="fill:url(#linearGradient1565);fill-opacity:1;stroke-width:0.269999;stroke-linecap:round;stroke-linejoin:round;paint-order:stroke markers fill"
         d="m -302.18185,78.54747 20.22153,0.03162 0.26043,15.776815 -19.87267,-0.0677 c -0.21298,-5.031193 -0.61867,-15.961521 -0.60929,-15.74073 z"
         id="path1505"
         sodipodi:nodetypes="ccccc" /></g></g></svg>
